Coordinates
version=1
nRows=14
nColumns=33
inDegrees=yes

Units are S.I. units (second, meters, Newtons, ...)
Angles are in degrees.

endheader
time	ground_thorax_rot_x	ground_thorax_rot_y	ground_thorax_rot_z	ground_thorax_tx	ground_thorax_ty	ground_thorax_tz	clav_prot_r	clav_elev_r	scapula_abduction_r	scapula_elevation_r	scapula_upward_rot_r	scapula_winging_r	shoulder_elv_r	plane_of_elev_r	axial_rot_r	elbow_flexion_r	pro_sup_r	wrist_flex_r	wrist_dev_r	clav_prot_l	clav_elev_l	scapula_abduction_l	scapula_elevation_l	scapula_upward_rot_l	scapula_winging_l	shoulder_elv_l	plane_of_elev_l	axial_rot_l	elbow_flexion_l	pro_sup_l	wrist_flex_l	wrist_dev_l
      2.59000000	      2.03107425	      7.14273469	     -0.14911533	     -0.18696209	      1.00072776	      0.01499349	    -17.56629100	     -9.23779796	    -22.81168834	     -4.85356042	      7.65329360	      2.75178625	     62.99159432	    -53.31662977	     57.64230209	     79.68845756	     22.23092598	     38.15047503	    -22.61975791	     -3.54183744	     -4.70192439	      3.74860907	     -3.58292773	     -4.98090382	     -1.81809089	     52.02232063	    -48.33414747	    -27.49724303	     78.79945120	     19.41166016	    -21.43927464	    -24.99999983
      2.60000000	      2.00056887	      7.16377241	     -0.05464956	     -0.18719943	      1.00070860	      0.01487621	    -17.56865237	     -9.25915523	    -22.79768715	     -4.88144052	      7.67614381	      2.75292010	     62.99356613	    -53.27935742	     57.62382860	     79.72798980	     22.22430931	     38.16169306	    -22.63239038	     -3.54255716	     -4.72419542	      3.73910423	     -3.55623804	     -4.96532930	     -1.81812169	     52.01624405	    -48.29234901	    -27.48238600	     78.82602109	     19.40587840	    -21.43973671	    -24.99999983
      2.61000000	      1.97408777	      7.18682702	      0.04963102	     -0.18746755	      1.00071763	      0.01479692	    -17.57415139	     -9.28222665	    -22.78996565	     -4.91049843	      7.69810547	      2.75661722	     62.98931708	    -53.24421732	     57.60348954	     79.78572346	     22.21610439	     38.17483348	    -22.64576540	     -3.54757356	     -4.74897503	      3.73515331	     -3.52491312	     -4.94470836	     -1.81851884	     52.00947488	    -48.24341655	    -27.45728570	     78.86867330	     19.39800966	    -21.44277882	    -24.99999983
      2.62000000	      1.72672844	      7.48246291	     -0.27226117	     -0.18755245	      1.00040945	      0.01478064	    -17.95448998	     -9.81131373	    -23.49132813	     -5.31584243	      7.39766220	      3.06236495	     63.08131737	    -53.09359337	     57.62716759	     80.10423667	     21.46964325	     38.56177321	    -23.55745424	     -3.07040043	     -4.56092683	      2.98625275	     -3.78410272	     -5.12925055	     -1.61940441	     51.66920320	    -47.74167887	    -26.11631999	     79.15005409	     18.77168477	    -21.00680310	    -24.99999983
      2.63000000	      1.69426740	      7.51063469	     -0.14849743	     -0.18783848	      1.00050133	      0.01464939	    -17.95682852	     -9.82969529	    -23.47455079	     -5.34338595	      7.42799904	      3.06123719	     63.08761605	    -53.04826738	     57.60343983	     80.15624473	     21.46374183	     38.56833332	    -23.56116915	     -3.07315719	     -4.58688961	      2.97470706	     -3.74786480	     -5.09956542	     -1.61662186	     51.67229901	    -47.68931598	    -26.10579185	     79.19448627	     18.76837279	    -21.00885025	    -24.99999983
      2.64000000	      1.66212179	      7.54574917	     -0.01177698	     -0.18815255	      1.00062907	      0.01454776	    -17.96347388	     -9.85016519	    -23.46422108	     -5.37333039	      7.45933068	      3.06212604	     63.08616991	    -53.00312227	     57.57533345	     80.23814712	     21.45508466	     38.57664676	    -23.56479639	     -3.08168632	     -4.61602795	      2.97065449	     -3.70677631	     -5.06478115	     -1.61562442	     51.67265370	    -47.62955584	    -26.08480180	     79.26137674	     18.76275849	    -21.01302023	    -24.99999983
      2.65000000	      1.59960182	      7.66587036	      0.02564065	     -0.18785663	      0.99987005	      0.01455216	    -18.10636306	     -9.77583876	    -23.68654481	     -5.33448956	      7.51941628	      3.01985610	     63.08140850	    -53.06792948	     57.45467098	     80.83875902	     21.36562219	     38.59560710	    -23.55859695	     -3.15819715	     -4.55912971	      3.07461123	     -3.70816665	     -4.94322001	     -1.61152583	     51.67952071	    -47.59305883	    -25.89592120	     79.78537031	     18.70933948	    -21.02479086	    -24.99999983
      2.66000000	      1.57014814	      7.69115749	      0.17574618	     -0.18820361	      1.00010898	      0.01442932	    -18.10934384	     -9.81135786	    -23.66080315	     -5.38215734	      7.56112061	      3.02368281	     63.08428387	    -52.99911920	     57.41631437	     80.90797584	     21.35325969	     38.59434108	    -23.55745483	     -3.15982144	     -4.59224492	      3.05726575	     -3.66444808	     -4.91227154	     -1.60912464	     51.67987695	    -47.52323075	    -25.88280053	     79.84023164	     18.70403214	    -21.02324825	    -24.99999983
      2.67000000	      1.52305538	      7.76695882	      0.15034741	     -0.18804488	      0.99953412	      0.01440541	    -18.25117515	     -9.81500882	    -23.85439540	     -5.42145264	      7.63944631	      3.00758487	     63.06066967	    -52.96745872	     57.23180580	     81.50692421	     21.20119991	     38.48844464	    -23.46514426	     -3.20687194	     -4.55680006	      3.11292545	     -3.65745673	     -4.81789582	     -1.60222803	     51.66783499	    -47.42080687	    -25.68690720	     80.36637299	     18.62864065	    -20.96609079	    -24.99999983
      2.68000000	      1.20663344	      8.32107620	      0.08614328	     -0.18846372	      0.99941809	      0.01464905	    -18.85250653	    -10.04363515	    -25.15602621	     -5.45282578	      7.02608871	      3.24207718	     63.21217677	    -52.29962329	     56.91195156	     82.45309746	     19.34259815	     35.26892539	    -20.64921414	     -2.49184983	     -4.39381300	      1.90767148	     -3.87234530	     -4.94265020	     -1.27305446	     51.78675784	    -47.15084092	    -24.81545021	     80.87420478	     17.81757556	    -18.53637191	    -24.99999983
      2.69000000	      1.17659607	      8.35913819	      0.26950485	     -0.18875707	      0.99978844	      0.01454780	    -18.85564022	    -10.08355569	    -25.12194130	     -5.51028440	      7.08396537	      3.24744967	     63.22880272	    -52.21758910	     56.86245447	     82.52138130	     19.33456151	     35.27666521	    -20.65472095	     -2.49959264	     -4.43020597	      1.89535756	     -3.81971337	     -4.89728984	     -1.26972269	     51.79401764	    -47.06894187	    -24.78863906	     80.93120656	     17.81132951	    -18.54063955	    -24.99999983
      2.70000000	      0.99775319	      8.73404082	      0.08185749	     -0.18864483	      0.99950742	      0.01452321	    -19.42149357	    -10.46238254	    -26.27097377	     -5.71629571	      6.57579467	      3.51755191	     63.80779736	    -51.58997130	     56.75495038	     83.46286889	     18.46799663	     33.78436390	    -18.82944166	     -2.14121803	     -4.30237218	      1.22748862	     -3.89072748	     -4.76810671	     -1.04685019	     51.56500560	    -46.79846518	    -23.89080574	     81.56370325	     17.26934465	    -16.83499300	    -24.99999983
      2.71000000	      0.96617033	      8.77407120	      0.28698325	     -0.18892124	      0.99995284	      0.01442272	    -19.42280746	    -10.50772244	    -26.22915886	     -5.78159974	      6.64082736	      3.52472487	     63.82303748	    -51.49634394	     56.69711969	     83.54221910	     18.45791120	     33.79257910	    -18.83718995	     -2.14815877	     -4.33944595	      1.21173738	     -3.83500454	     -4.71576534	     -1.04047657	     51.57974299	    -46.71213223	    -23.86539492	     81.61832734	     17.26354896	    -16.83959769	    -24.99999983
      2.72000000	      0.95278953	      8.82238572	      0.33010836	     -0.18870964	      0.99964156	      0.01437167	    -19.55693000	    -10.53690263	    -26.38106994	     -5.85967214	      6.76241236	      3.50698496	     63.82602715	    -51.44334520	     56.46752102	     84.12181032	     18.36153604	     33.76852727	    -18.79914844	     -2.21710444	     -4.32338989	      1.29998373	     -3.80700468	     -4.61435397	     -1.04836227	     51.52686748	    -46.58067918	    -23.70367021	     82.09530977	     17.20627623	    -16.81134206	    -24.99999983
